<mxfile host="app.diagrams.net" modified="2024-01-19T05:37:08.986Z" agent="Mozilla/5.0 (Windows NT 10.0; Win64; x64) AppleWebKit/537.36 (KHTML, like Gecko) Chrome/121.0.0.0 Safari/537.36" version="22.1.21" etag="mVlzRPDH-SAA9FtpzNzW" type="github">
  <diagram name="Page-1" id="zf_z-0nFQwZFUesaDlqQ">
    <mxGraphModel>
      <root>
        <mxCell id="0" />
        <mxCell id="1" parent="0" />
      </root>
    </mxGraphModel>
  </diagram>
</mxfile>
